<?xml version="1.0" encoding="UTF-8"?>
<svg id="Layer_2" data-name="Layer 2" xmlns="http://www.w3.org/2000/svg" viewBox="0 0 300 300">
  <defs>
    <style>
      .cls-1 {
        fill: #fff;
      }

      .cls-2 {
        fill: #f05133;
      }
    </style>
  </defs>
  <g id="Layer_1-2" data-name="Layer 1">
    <g>
      <rect class="cls-1" width="300" height="300" rx="30.67" ry="30.67"/>
      <path class="cls-2" d="M173.41,199.22c.08,2.77.33,5.3,1.17,7.83,2.45,7.37,8.83,10.05,16.18,10.87-1.37,1.4-2.09,3.11-2.36,5.1-3.99,1.89-8.43,1.26-10.81-2.68-1.06-1.75-2.4-3.26-4.34-4-1.02-.38-2.04-.57-3.1-.23-.14.05-.41.28-.44.42-.16.72,1.49,1.68,2.01,2.06,1.53,1.12,2.66,2.76,3.37,4.53s1.72,3.25,3.41,4.26c2.97,1.77,6.26,1.68,9.78.98l.04,7.34c0,.94-1.22,2.02-2.23,1.7-14.83-4.7-25.24-18.16-26.39-33.45-1.2-15.86,7.48-30.82,21.96-37.6,10.16-4.76,22.03-4.77,32.2-.04,14.44,6.71,23.14,21.57,22.06,37.36-1.05,15.38-11.4,28.89-26.29,33.71-.49.16-1.29-.1-1.69-.41-.45-.34-.66-.94-.66-1.59l.02-10.75c0-2.49-.77-4.92-2.49-6.75,7.29-.78,13.67-3.42,16.16-10.73.89-2.61,1.13-5.24,1.2-8,.11-3.92-1.44-7.42-3.83-10.4.84-3.25,1-6.97-.57-10.14-3.43-.38-7.63,2.09-10.41,3.94-6.3-1.68-12.84-1.69-19.14,0-2.78-1.85-7-4.32-10.42-3.95-1.56,3.18-1.4,6.91-.56,10.14-2.38,2.98-3.95,6.46-3.83,10.47Z"/>
      <path d="M147.89,215.95l39.91,35.02,22.23,19.75.04-20.74,7.39-7.3.05,32.3c0,2.21-1.6,3.84-3.14,4.68-1.75.95-4.29,1.19-5.96-.28l-26.77-23.59-36.41-31.93-26.54,23.23-31.86,27.77c-1.26,1.09-2.8,1.38-4.09.84-1.59-.67-2.39-1.94-2.39-3.92l-.03-207.07c0-7.89,5.65-13.66,13.6-13.65l111.3.1c6.14,0,12.15,5.54,12.15,11.74l.1,98.16-7.83-7.57-.03-89.85c0-2.48-2.05-4.32-4.48-4.32h-111.93c-2.2,0-4.92,1.33-4.92,4.04l-.04,200.44,5.38-4.98,48.99-42.96c1.51-1.32,3.77-1.23,5.29.1Z"/>
      <path d="M55.95,109.33c1.61-1.57,3.81-.91,4.92.22,1.3,1.32,1.68,3.67.24,5.11l-13.76,13.79c-1.59,1.59-3.96,1.36-5.47-.15l-13.28-13.32c-1.6-1.6-1.44-4.26.09-5.58,1.83-1.58,3.94-1.13,5.65.58l6.76,6.75c-.54-20.26,7-41.68,18.91-57.99,7.85-10.76,17.45-20.03,28.7-27.26,16.82-10.8,36.47-16.45,56.46-16.67,26.5-.3,49.88,8.33,70.57,24.46,1.79,1.4,1.33,4.07.13,5.46-1.4,1.63-3.82,1.79-5.6.37-17.31-13.78-38.38-21.58-60.56-22.3-23.41-.75-46.51,6.58-64.83,21.15-21.97,17.48-35.65,43.95-36.35,72.63l7.41-7.25Z"/>
      <path class="cls-2" d="M148.92,132.01l-16.23,9.73c-1.46.88-2.94,1.01-4.33.25s-2.3-2.5-1.91-4.32l4.14-19.06-13.47-12.07c-1.18-1.06-2.05-2.2-1.94-3.85.07-1.08.88-3.14,2.5-3.26l20.03-1.39,7.6-18.4c.69-1.66,2.62-2.44,4.15-2.33,1.62.11,2.84,1.41,3.52,3.07l7.15,17.61,19.87,1.35c1.37.09,2.5,1.59,2.85,2.52.45,1.19.12,2.99-.93,3.91l-14.73,13.02,4.29,19.65c.32,1.46-.86,3.01-1.87,3.54-1.22.64-2.88.79-4.15.02l-16.52-10ZM151.27,124.57l11.13,6.47-3.02-12.83c-.38-1.63.3-3.1,1.51-4.13l9.38-8.01-12.71-.85c-1.67-.35-3.11-1.13-3.79-2.66l-4.89-11.88-5.21,12.63c-1.24,1.32-2.83,1.97-4.66,2l-11.36.78,9.38,8.07c1.36,1.23,1.84,2.83,1.43,4.62l-2.86,12.6,11.89-7.03c1.09-.64,2.61-.47,3.77.21Z"/>
      <path d="M231.49,174.83c7.87-13.32,13.4-28.98,13.53-44.63l-7.19,7.09c-1.52,1.5-4.04,1.09-5.4-.37s-1.41-3.99.17-5.57l13.45-13.45c1.79-1.79,3.99-1.35,5.61.28l13.77,13.82c1.54,1.54.66,4.11-.59,5.18-1.7,1.46-3.78,1.29-5.4-.26l-6.77-6.55c-.42,17.89-5.65,35.06-15.74,49.87l-5.46-5.42Z"/>
      <path class="cls-1" d="M151.27,124.57c-1.16-.68-2.68-.85-3.77-.21l-11.89,7.03,2.86-12.6c.41-1.79-.07-3.39-1.43-4.62l-9.38-8.07,11.36-.78c1.83-.03,3.41-.68,4.66-2l5.21-12.63,4.89,11.88c.69,1.53,2.12,2.31,3.79,2.66l12.71.85-9.38,8.01c-1.21,1.03-1.9,2.5-1.51,4.13l3.02,12.83-11.13-6.47Z"/>
    </g>
  </g>
</svg>